<svg xmlns="http://www.w3.org/2000/svg" width="512" height="512" viewBox="0 0 32.034 32.033"><path d="M21.679 16.017l9.18-9.172c.758-.755 1.175-1.76 1.175-2.828s-.417-2.073-1.175-2.829a3.977 3.977 0 0 0-2.83-1.171 3.985 3.985 0 0 0-2.832 1.171l-9.182 9.172-9.181-9.172A3.98 3.98 0 0 0 4.001.016a4.001 4.001 0 0 0-2.83 6.829l9.182 9.172-9.181 9.172a4.002 4.002 0 1 0 5.662 5.657l9.181-9.172 9.181 9.171a3.983 3.983 0 0 0 2.83 1.172 4 4 0 0 0 2.832-6.829l-9.179-9.171zm7.763 13.414c-.756.755-2.074.756-2.832 0l-9.887-9.878a.998.998 0 0 0-1.416 0l-9.889 9.879c-.757.755-2.075.755-2.832 0a2.003 2.003 0 0 1 0-2.829l9.889-9.879a.996.996 0 0 0 0-1.414l-9.89-9.879a2.003 2.003 0 0 1 2.833-2.829l9.889 9.879a1.001 1.001 0 0 0 1.416 0l9.889-9.878c.757-.756 2.074-.756 2.832-.001.377.378.586.881.586 1.415s-.209 1.036-.586 1.414l-9.889 9.879a.997.997 0 0 0 0 1.414l9.889 9.878a2 2 0 0 1-.002 2.829z" fill="#FFF"/></svg>