<svg xmlns="http://www.w3.org/2000/svg" width="512" height="512" viewBox="0 0 69.066 69.066"><path d="M63.754 69.066H53.506a3.03 3.03 0 0 1-2.166-.917l-21.4-22.292v20.244c0 1.636-1.344 2.965-2.996 2.965h-8.656c-1.653 0-2.997-1.329-2.997-2.965V39.545H7.327a5.017 5.017 0 0 1-5.012-5.012 5.017 5.017 0 0 1 5.012-5.012h7.964V2.965C15.291 1.33 16.635 0 18.288 0h8.656c1.652 0 2.996 1.33 2.996 2.965v21.718L48.486 1.141A3.026 3.026 0 0 1 50.848 0h10.746c1.12 0 2.137.61 2.654 1.592a2.928 2.928 0 0 1-.305 3.212L44.179 29.521h15.517a5.017 5.017 0 0 1 5.012 5.012 5.017 5.017 0 0 1-5.012 5.012h-16.14l22.423 24.571a2.943 2.943 0 0 1 .479 3.271 3.036 3.036 0 0 1-2.704 1.679zM7.328 32.521a2.014 2.014 0 0 0-2.012 2.012c0 1.109.902 2.012 2.012 2.012h9.464a1.5 1.5 0 0 1 1.5 1.5v28.059l8.653-.036-.004-22.603c0-.817.656-1.486 1.475-1.5l1.262-.021c.408-.011.818.159 1.107.461L53.5 66.068l10.255-.001a.03.03 0 0 0 .012-.005L39.048 39.055a1.496 1.496 0 0 1-.265-1.615 1.497 1.497 0 0 1 1.373-.896h19.539a2.014 2.014 0 0 0 2.012-2.012c0-1.11-.902-2.012-2.012-2.012H41.058a1.5 1.5 0 0 1-1.171-2.437L61.6 2.929l-10.752.069-21.23 26.939a1.5 1.5 0 0 1-2.678-.929V2.965L18.289 3l.003 28.021a1.5 1.5 0 0 1-1.5 1.5H7.328z" fill="#FFF"/></svg>