<svg xmlns="http://www.w3.org/2000/svg" viewBox="0 0 60 60" width="512" height="512"><g fill="#9b9b9b"><path d="M30 20.5c-6.617 0-12 5.383-12 12s5.383 12 12 12 12-5.383 12-12-5.383-12-12-12z"/><path d="M55.201 15.5h-8.524l-4-10H17.323l-4 10H12v-5H6v5H4.799A4.803 4.803 0 0 0 0 20.299v29.368A4.838 4.838 0 0 0 4.833 54.5h50.334A4.838 4.838 0 0 0 60 49.667V20.299a4.803 4.803 0 0 0-4.799-4.799zM10 15.5H8v-3h2v3zm20 35c-9.925 0-18-8.075-18-18s8.075-18 18-18 18 8.075 18 18-8.075 18-18 18zm22-23c-2.206 0-4-1.794-4-4s1.794-4 4-4 4 1.794 4 4-1.794 4-4 4z"/></g></svg>