<svg xmlns="http://www.w3.org/2000/svg" viewBox="0 0 508 508" width="512" height="512"><path fill="#6692a6" d="M106.5 211.163h16.4v16.4h-16.4zM106.5 243.862h16.4v16.4h-16.4zM106.5 178.362h16.4v16.4h-16.4z"/><path d="M409.6 138.963v-112.5c0-8.9-4.6-16.8-12.3-21.3-7.7-4.4-16.9-4.5-24.8.1l-202.7 123.9H49.2v32.8H0v114.7h49.2v32.8h26.1l33.6 161.4c4.3 20.4 22.5 35.3 43.4 35.3 13.4 0 25.9-6 34.4-16.3s11.7-23.9 9-37l-29.9-143.3h4l202.9 123.9.2.1c3.8 2.2 8.1 3.3 12.3 3.3 4.2 0 8.4-1.1 12.3-3.3 7.7-4.4 12.3-12.4 12.3-21.3v-112.7c29.9-15.3 49-46.2 49-80.3s-19.1-65-49.2-80.3zm-360.4 121.3H16.4v-81.9h32.8v81.9zm22.7 32.8h-6.4v-147.5h98.3v147.5H71.9zm107.7 163c1.7 8.3-.3 16.8-5.7 23.3-5.3 6.5-13.2 10.3-21.6 10.3-13.1 0-24.6-9.3-27.3-22.2l-33-158h57l30.6 146.6zm172.7-54.3l-172-105.1v-154.7l172-105.1v364.9zm41 10.4c0 4.3-2.9 6.4-4.1 7.1s-4.4 2.1-8.1 0l-12.4-7.6v-384.8l12.3-7.5c3.7-2.1 7-.7 8.2 0 1.2.7 4.1 2.8 4.1 7.1v385.7zm16.4-131.7v-122.3c20.2 13.5 32.8 36.2 32.8 61.2 0 24.8-12.6 47.6-32.8 61.1zM475.2 211.163H508v16.4h-32.8zM445.164 127.138l23.193-23.193 11.597 11.596-23.193 23.193zM445.159 311.545l11.595-11.598 23.196 23.19-11.595 11.598z" fill="#6692a6"/></svg>