<svg xmlns="http://www.w3.org/2000/svg" viewBox="0 0 508 508" width="512" height="512"><path d="M254 0C113.9 0 0 113.9 0 254s113.9 254 254 254 254-113.9 254-254S394.1 0 254 0zm0 491.6c-74.9 0-141.8-34.9-185.4-89.2l84.9-134.9 33.3 37-25.4 50.8 65.9 41.2-24.9 58.1 73.4 36c-7.2.7-14.4 1-21.8 1zm50.1-5.4l-80.5-39.5 24.3-56.7-65.2-40.7 23.7-47.5-43.9-48.7 25.9-41 161.5 259.2c-14.6 6.5-29.9 11.5-45.8 14.9zm60.7-22.1L325.4 401l84.3-131.9 57.9 88.7c-22.1 45.4-58.3 82.7-102.8 106.3zm44.8-225.2l-93.8 146.7-119.2-191.3v-46.8h121l-29.5-49.2 29.5-49.2H180.3v145.1L58.1 388.3C31.8 350.1 16.4 303.8 16.4 254 16.4 123 123 16.4 254 16.4S491.6 123 491.6 254c0 30.2-5.7 59.2-16.1 85.8l-65.9-100.9zM196.7 65.5h91.9L269 98.3l19.7 32.8h-92V65.5z" fill="#6692a6"/></svg>