<?xml version="1.0" encoding="iso-8859-1"?>
<!-- Generator: Adobe Illustrator 19.0.0, SVG Export Plug-In . SVG Version: 6.00 Build 0)  -->
<svg xmlns="http://www.w3.org/2000/svg" xmlns:xlink="http://www.w3.org/1999/xlink" version="1.1" id="Capa_1" x="0px" y="0px" viewBox="0 0 508 508" style="enable-background:new 0 0 508 508;" xml:space="preserve" width="512px" height="512px">
<g>
	<g>
		<path d="M254,0C113.9,0,0,113.9,0,254s113.9,254,254,254s254-113.9,254-254S394.1,0,254,0z M254,491.6    c-74.9,0-141.8-34.9-185.4-89.2l84.9-134.9l33.3,37l-25.4,50.8l65.9,41.2l-24.9,58.1l73.4,36C268.6,491.3,261.4,491.6,254,491.6z     M304.1,486.2l-80.5-39.5l24.3-56.7l-65.2-40.7l23.7-47.5l-43.9-48.7l25.9-41l161.5,259.2C335.3,477.8,320,482.8,304.1,486.2z     M364.8,464.1L325.4,401l84.3-131.9l57.9,88.7C445.5,403.2,409.3,440.5,364.8,464.1z M409.6,238.9l-93.8,146.7L196.6,194.3v-46.8    h121l-29.5-49.2l29.5-49.2H180.3v8.2v90.1v46.8L58.1,388.3C31.8,350.1,16.4,303.8,16.4,254C16.4,123,123,16.4,254,16.4    S491.6,123,491.6,254c0,30.2-5.7,59.2-16.1,85.8L409.6,238.9z M196.7,65.5h91.9L269,98.3l19.7,32.8h-92V65.5z" fill="#6692a6"/>
	</g>
</g>
<g>
</g>
<g>
</g>
<g>
</g>
<g>
</g>
<g>
</g>
<g>
</g>
<g>
</g>
<g>
</g>
<g>
</g>
<g>
</g>
<g>
</g>
<g>
</g>
<g>
</g>
<g>
</g>
<g>
</g>
</svg>
