<?xml version="1.0" encoding="iso-8859-1"?>
<!-- Generator: Adobe Illustrator 19.0.0, SVG Export Plug-In . SVG Version: 6.00 Build 0)  -->
<svg xmlns="http://www.w3.org/2000/svg" xmlns:xlink="http://www.w3.org/1999/xlink" version="1.1" id="Capa_1" x="0px" y="0px" viewBox="0 0 508 508" style="enable-background:new 0 0 508 508;" xml:space="preserve" width="512px" height="512px">
<g>
	<g>
		<path d="M417.9,203.4v-79l-23.3-4.7c-2.6-8.4-6-16.4-9.9-24.1l13.1-19.7l-55.9-55.8l-19.7,13.1c-7.7-4-15.7-7.3-24.1-9.9L293.5,0    h-79l-4.6,23.3c-8.4,2.6-16.4,5.9-24.1,9.9l-19.7-13.1l-55.9,55.8l13.1,19.7c-4,7.7-7.3,15.7-9.9,24.1l-23.3,4.7v79l23.3,4.7    c2.6,8.4,5.9,16.4,9.9,24.1l-13.1,19.7l45.5,45.5v112.4h24.6V508h65.5h16.4h65.5v-98.3h24.6V297.3l45.5-45.5l-13.1-19.7    c4-7.6,7.3-15.7,9.9-24.1L417.9,203.4z M245.8,491.6h-49.2v-81.9h49.2V491.6z M311.4,491.6h-49.2v-81.9h49.2V491.6z M335.9,393.3    h-8.2h-65.5h-16.4h-65.5h-8.2V262.2c0-13.6,11-24.6,24.6-24.6h16.7l40.6,74.5l40.6-74.5h16.7c13.6,0,24.6,11,24.6,24.6V393.3z     M155.6,164c0-54.2,44.1-98.3,98.3-98.3s98.3,44.1,98.3,98.3c0.1,22.2-7.8,44.4-21.9,62.1c-5.7-3-12.1-4.9-19-4.9h-26.5L254,277.9    l-30.9-56.6h-26.5c-6.8,0-13.1,1.8-18.8,4.8C163.5,208.6,155.6,187,155.6,164z M381.6,193.9l-1.3,4.9c-2.9,10.5-7,20.5-12.3,29.7    l-2.5,4.4l11.2,16.9l-24.4,24.4v-11.9c0-9.8-3.6-18.6-9.3-25.7c16.4-20.6,25.7-46.5,25.7-72.6c0-63.3-51.5-114.7-114.7-114.7    S139.3,100.8,139.3,164c0,26.8,9.1,52.1,25.9,72.4c-5.8,7.1-9.5,16-9.5,25.9v11.9l-24.4-24.4l11.2-16.9l-2.5-4.4    c-5.2-9.2-9.4-19.2-12.3-29.7l-1.3-4.9l-19.9-4v-52.1l19.9-4l1.3-4.9c2.9-10.5,7-20.5,12.3-29.7l2.5-4.4L131.3,78l36.8-36.9    L185,52.4l4.4-2.5c9.2-5.2,19.2-9.4,29.7-12.3l4.9-1.3l4-19.9h52.1l4,19.9l4.9,1.3c10.5,2.9,20.5,7,29.7,12.3l4.4,2.5L340,41.2    L376.7,78l-11.2,16.9l2.5,4.4c5.2,9.2,9.4,19.2,12.3,29.7l1.3,4.9l19.9,4V190L381.6,193.9z" fill="#6692a6"/>
	</g>
</g>
<g>
	<g>
		<path d="M254,98.3c-31.6,0-57.4,25.7-57.4,57.4S222.4,213,254,213c31.6,0,57.4-25.7,57.4-57.4C311.4,123.9,285.6,98.3,254,98.3z     M254,196.6c-22.6,0-41-18.4-41-41c0-22.6,18.4-41,41-41c22.6,0,41,18.4,41,41C295,178.2,276.6,196.6,254,196.6z" fill="#6692a6"/>
	</g>
</g>
<g>
</g>
<g>
</g>
<g>
</g>
<g>
</g>
<g>
</g>
<g>
</g>
<g>
</g>
<g>
</g>
<g>
</g>
<g>
</g>
<g>
</g>
<g>
</g>
<g>
</g>
<g>
</g>
<g>
</g>
</svg>
