<svg xmlns="http://www.w3.org/2000/svg" viewBox="0 0 508 508" width="512" height="512"><path d="M417.9 203.4v-79l-23.3-4.7c-2.6-8.4-6-16.4-9.9-24.1l13.1-19.7-55.9-55.8-19.7 13.1c-7.7-4-15.7-7.3-24.1-9.9L293.5 0h-79l-4.6 23.3c-8.4 2.6-16.4 5.9-24.1 9.9l-19.7-13.1-55.9 55.8 13.1 19.7c-4 7.7-7.3 15.7-9.9 24.1l-23.3 4.7v79l23.3 4.7c2.6 8.4 5.9 16.4 9.9 24.1l-13.1 19.7 45.5 45.5v112.4h24.6V508h147.4v-98.3h24.6V297.3l45.5-45.5-13.1-19.7c4-7.6 7.3-15.7 9.9-24.1l23.3-4.6zM245.8 491.6h-49.2v-81.9h49.2v81.9zm65.6 0h-49.2v-81.9h49.2v81.9zm24.5-98.3H172.1V262.2c0-13.6 11-24.6 24.6-24.6h16.7l40.6 74.5 40.6-74.5h16.7c13.6 0 24.6 11 24.6 24.6v131.1zM155.6 164c0-54.2 44.1-98.3 98.3-98.3s98.3 44.1 98.3 98.3c.1 22.2-7.8 44.4-21.9 62.1-5.7-3-12.1-4.9-19-4.9h-26.5L254 277.9l-30.9-56.6h-26.5c-6.8 0-13.1 1.8-18.8 4.8-14.3-17.5-22.2-39.1-22.2-62.1zm226 29.9l-1.3 4.9c-2.9 10.5-7 20.5-12.3 29.7l-2.5 4.4 11.2 16.9-24.4 24.4v-11.9c0-9.8-3.6-18.6-9.3-25.7 16.4-20.6 25.7-46.5 25.7-72.6 0-63.3-51.5-114.7-114.7-114.7S139.3 100.8 139.3 164c0 26.8 9.1 52.1 25.9 72.4-5.8 7.1-9.5 16-9.5 25.9v11.9l-24.4-24.4 11.2-16.9-2.5-4.4c-5.2-9.2-9.4-19.2-12.3-29.7l-1.3-4.9-19.9-4v-52.1l19.9-4 1.3-4.9c2.9-10.5 7-20.5 12.3-29.7l2.5-4.4L131.3 78l36.8-36.9L185 52.4l4.4-2.5c9.2-5.2 19.2-9.4 29.7-12.3l4.9-1.3 4-19.9h52.1l4 19.9 4.9 1.3c10.5 2.9 20.5 7 29.7 12.3l4.4 2.5L340 41.2 376.7 78l-11.2 16.9 2.5 4.4c5.2 9.2 9.4 19.2 12.3 29.7l1.3 4.9 19.9 4V190l-19.9 3.9z" fill="#6692a6"/><path d="M254 98.3c-31.6 0-57.4 25.7-57.4 57.4S222.4 213 254 213c31.6 0 57.4-25.7 57.4-57.4S285.6 98.3 254 98.3zm0 98.3c-22.6 0-41-18.4-41-41s18.4-41 41-41 41 18.4 41 41-18.4 41-41 41z" fill="#6692a6"/></svg>