<?xml version="1.0" encoding="iso-8859-1"?>
<!-- Generator: Adobe Illustrator 19.0.0, SVG Export Plug-In . SVG Version: 6.00 Build 0)  -->
<svg xmlns="http://www.w3.org/2000/svg" xmlns:xlink="http://www.w3.org/1999/xlink" version="1.1" id="Capa_1" x="0px" y="0px" viewBox="0 0 508 508" style="enable-background:new 0 0 508 508;" xml:space="preserve" width="512px" height="512px">
<g>
	<g>
		<path d="M483.4,462.95v-0.1V85.95h-65.5v376.9h-32.8v-327.7h-65.5v327.7h-32.8v-278.5h-65.5v278.6h-32.8v-229.5H123v229.4H90.1    v-180.2H24.6v180.3H0v16.4h508v-16.4H483.4z M73.8,462.95H41v-0.1v-163.8h32.8V462.95z M172.1,462.85h-32.8v-213h32.8V462.85z     M270.4,462.85h-32.8v0v-262.2h32.8V462.85z M368.7,462.95h-32.8v-0.1v-311.3h32.8V462.95z M467,462.85h-32.7v-360.5H467V462.85z" fill="#6692a6"/>
	</g>
</g>
<g>
	<g>
		<polygon points="286.8,28.65 286.8,45.05 308,45.05 213,139.95 172.1,98.95 51.6,219.45 63.1,231.05 172.1,122.15 213,163.15     319.5,56.65 319.5,77.75 335.9,77.75 335.9,28.65   " fill="#6692a6"/>
	</g>
</g>
<g>
</g>
<g>
</g>
<g>
</g>
<g>
</g>
<g>
</g>
<g>
</g>
<g>
</g>
<g>
</g>
<g>
</g>
<g>
</g>
<g>
</g>
<g>
</g>
<g>
</g>
<g>
</g>
<g>
</g>
</svg>
