<svg xmlns="http://www.w3.org/2000/svg" viewBox="0 0 508 508" width="512" height="512"><path d="M483.4 462.95v-377h-65.5v376.9h-32.8v-327.7h-65.5v327.7h-32.8v-278.5h-65.5v278.6h-32.8v-229.5H123v229.4H90.1v-180.2H24.6v180.3H0v16.4h508v-16.4h-24.6zm-409.6 0H41v-163.9h32.8v163.9zm98.3-.1h-32.8v-213h32.8v213zm98.3 0h-32.8v-262.2h32.8v262.2zm98.3.1h-32.8V151.55h32.8v311.4zm98.3-.1h-32.7v-360.5H467v360.5zM286.8 28.65v16.4H308l-95 94.9-40.9-41-120.5 120.5 11.5 11.6 109-108.9 40.9 41 106.5-106.5v21.1h16.4v-49.1z" fill="#6692a6"/></svg>